<svg width="16" height="16" viewBox="0 0 16 16" fill="none" xmlns="http://www.w3.org/2000/svg">
<path fill-rule="evenodd" clip-rule="evenodd" d="M11.3309 2.26562C11.5031 2.26562 11.6559 2.3758 11.7104 2.53913L12.1471 3.8494L13.4574 4.28615C13.6207 4.3406 13.7309 4.49345 13.7309 4.66562C13.7309 4.8378 13.6207 4.99065 13.4574 5.0451L12.1471 5.48185L11.7104 6.79212C11.6559 6.95545 11.5031 7.06562 11.3309 7.06562C11.1587 7.06562 11.0059 6.95545 10.9514 6.79212L10.5147 5.48185L9.20441 5.0451C9.04107 4.99065 8.9309 4.8378 8.9309 4.66562C8.9309 4.49345 9.04107 4.3406 9.20441 4.28615L10.5147 3.8494L10.9514 2.53913C11.0059 2.3758 11.1587 2.26562 11.3309 2.26562Z" fill="white"/>
<path fill-rule="evenodd" clip-rule="evenodd" d="M11.3309 7.99896C11.6991 7.99896 11.9976 8.29743 11.9976 8.66563V11.999C11.9976 12.3671 11.6991 12.6656 11.3309 12.6656C10.9627 12.6656 10.6642 12.3671 10.6642 11.999V8.66563C10.6642 8.29743 10.9627 7.99896 11.3309 7.99896Z" fill="white"/>
<path fill-rule="evenodd" clip-rule="evenodd" d="M4.76347 4.48419C4.84466 4.19714 5.10666 3.99896 5.40497 3.99896H6.59015C6.88847 3.99896 7.15047 4.19714 7.23166 4.4842L9.30566 11.8175C9.40586 12.1718 9.19988 12.5403 8.84559 12.6405C8.4913 12.7407 8.12286 12.5347 8.02266 12.1804L6.08588 5.33229H5.90924L3.9724 12.1804C3.8722 12.5347 3.50376 12.7407 3.14947 12.6405C2.79517 12.5403 2.58919 12.1718 2.6894 11.8175L4.76347 4.48419Z" fill="white"/>
<path fill-rule="evenodd" clip-rule="evenodd" d="M3.3309 9.99896C3.3309 9.63077 3.62938 9.33229 3.99757 9.33229H7.99757C8.36576 9.33229 8.66423 9.63077 8.66423 9.99896C8.66423 10.3671 8.36576 10.6656 7.99757 10.6656H3.99757C3.62938 10.6656 3.3309 10.3671 3.3309 9.99896Z" fill="white"/>
</svg>
